Coordinates
version=1
nRows=28
nColumns=38
inDegrees=no

Units are S.I. units (second, meters, Newtons, ...)
If the header above contains a line with 'inDegrees', this indicates whether rotational values are in degrees (yes) or radians (no).

endheader
time	pelvis_tilt	pelvis_list	pelvis_rotation	pelvis_tx	pelvis_ty	pelvis_tz	hip_flexion_r	hip_adduction_r	hip_rotation_r	knee_angle_r	ankle_angle_r	subtalar_angle_r	mtp_angle_r	hip_flexion_l	hip_adduction_l	hip_rotation_l	knee_angle_l	ankle_angle_l	subtalar_angle_l	mtp_angle_l	lumbar_extension	lumbar_bending	lumbar_rotation	arm_flex_r	arm_add_r	arm_rot_r	elbow_flex_r	pro_sup_r	wrist_flex_r	wrist_dev_r	arm_flex_l	arm_add_l	arm_rot_l	elbow_flex_l	pro_sup_l	wrist_flex_l	wrist_dev_l
4.52	2.92268	1.44525	-1.4214	0.783318	1.39914	0.94696	-0.206878	0.0984774	-0.146973	0.144489	0.0359568	0	0	0.304977	-0.225126	-0.349922	0.63525	-0.078001	0	0	-0.318111	0.0210615	0.129892	0.700903	-0.364555	0.420886	1.34704	1.5708	0	0	0.640049	-0.34257	0.241189	1.21482	1.5708	0	0
4.53	2.90901	1.44842	-1.40661	0.783049	1.40543	0.945957	-0.213226	0.0992364	-0.14657	0.140591	0.0405557	0	0	0.311707	-0.21772	-0.351033	0.591412	-0.0796036	0	0	-0.315334	0.0228387	0.127805	0.703796	-0.363757	0.42211	1.34545	1.5708	0	0	0.640121	-0.343035	0.239153	1.21664	1.5708	0	0
4.54	2.85312	1.45192	-1.3499	0.782525	1.41221	0.944245	-0.21989	0.104905	-0.144584	0.134797	0.0451967	0	0	0.329408	-0.228444	-0.376886	0.572236	-0.0715791	0	0	-0.309474	0.0305377	0.126847	0.706427	-0.364961	0.425656	1.3452	1.5708	0	0	0.637795	-0.342374	0.235598	1.21925	1.5708	0	0
4.55	2.86789	1.4556	-1.36157	0.782119	1.41791	0.943556	-0.224869	0.101859	-0.147623	0.132674	0.0501565	0	0	0.325889	-0.201001	-0.346116	0.503598	-0.0797051	0	0	-0.308637	0.0281239	0.121993	0.709456	-0.362613	0.424868	1.34352	1.5708	0	0	0.639737	-0.343237	0.233445	1.22086	1.5708	0	0
4.56	2.84843	1.45856	-1.33887	0.781453	1.42414	0.942312	-0.231751	0.103069	-0.150335	0.128145	0.0552579	0	0	0.331228	-0.190663	-0.339191	0.458248	-0.0826876	0	0	-0.30596	0.0307919	0.117906	0.712245	-0.362101	0.425539	1.34303	1.5708	0	0	0.639841	-0.343083	0.230491	1.22319	1.5708	0	0
4.57	2.82379	1.46192	-1.31082	0.780713	1.43036	0.940953	-0.238293	0.104737	-0.152228	0.123067	0.0602878	0	0	0.336729	-0.180322	-0.330405	0.413299	-0.0868354	0	0	-0.30263	0.0339175	0.113729	0.714985	-0.361673	0.425814	1.34277	1.5708	0	0	0.639672	-0.342656	0.226964	1.22576	1.5708	0	0
4.58	2.79554	1.46528	-1.27934	0.77995	1.43655	0.939494	-0.244601	0.1066	-0.15408	0.117941	0.0651089	0	0	0.341746	-0.1701	-0.320336	0.36863	-0.0923948	0	0	-0.299147	0.0371849	0.109874	0.717779	-0.361439	0.425566	1.34328	1.5708	0	0	0.638935	-0.342495	0.223866	1.23022	1.5708	0	0
4.59	2.75611	1.46976	-1.23725	0.779078	1.4428	0.9379	-0.248809	0.108598	-0.15515	0.113959	0.0702334	0	0	0.347269	-0.160176	-0.30849	0.323739	-0.100258	0	0	-0.295533	0.0413107	0.102597	0.723863	-0.358313	0.428905	1.34288	1.5708	0	0	0.626698	-0.316787	0.0309489	1.32205	1.04737	0	0
4.6	2.72333	1.47244	-1.20162	0.778336	1.44902	0.936287	-0.255775	0.110864	-0.154995	0.108712	0.0750798	0	0	0.350196	-0.150373	-0.295632	0.279974	-0.109556	0	0	-0.292585	0.0443239	0.0993199	0.726441	-0.35797	0.427417	1.34449	1.5708	0	0	0.627305	-0.315437	0.0241555	1.32555	1.00994	0	0
4.61	2.69005	1.47467	-1.16592	0.777635	1.45531	0.934611	-0.263231	0.113106	-0.154061	0.103468	0.0799658	0	0	0.350989	-0.140818	-0.280654	0.235283	-0.117697	0	0	-0.289925	0.0471239	0.0967846	0.728933	-0.358164	0.42644	1.34645	1.5708	0	0	0.627936	-0.314023	0.0186115	1.32961	0.986027	0	0
4.62	2.65318	1.47663	-1.1271	0.776925	1.46166	0.932842	-0.270947	0.115428	-0.152764	0.0980702	0.085032	0	0	0.350204	-0.131803	-0.26353	0.190648	-0.120888	0	0	-0.287242	0.0501235	0.0949891	0.731318	-0.35893	0.425765	1.34882	1.5708	0	0	0.628393	-0.312463	0.013603	1.3334	0.966981	0	0
4.63	2.6191	1.47791	-1.09133	0.776257	1.46808	0.931029	-0.279928	0.117783	-0.151012	0.0918863	0.0899919	0	0	0.347438	-0.123363	-0.24531	0.147095	-0.118459	0	0	-0.285213	0.0527274	0.0937041	0.733237	-0.360072	0.424445	1.35191	1.5708	0	0	0.628996	-0.311078	0.00938194	1.33753	0.955394	0	0
4.64	2.58527	1.4787	-1.05635	0.77567	1.47463	0.929164	-0.289461	0.12017	-0.148843	0.0857808	0.0951734	0	0	0.343892	-0.116336	-0.228346	0.106453	-0.114152	0	0	-0.28344	0.0550901	0.0932684	0.734146	-0.361341	0.421401	1.35616	1.5708	0	0	0.629731	-0.309769	0.00575427	1.34246	0.948001	0	0
4.65	2.55333	1.47889	-1.02412	0.775206	1.48135	0.927266	-0.299807	0.122472	-0.146072	0.0795505	0.100945	0	0	0.33954	-0.110862	-0.214256	0.0691296	-0.112028	0	0	-0.281976	0.0570812	0.0940491	0.733714	-0.362771	0.416655	1.36157	1.5708	0	0	0.630496	-0.308421	0.00311783	1.34763	0.943204	0	0
4.66	2.52641	1.47852	-0.998435	0.774954	1.48821	0.925391	-0.310856	0.124314	-0.141622	0.0736227	0.106482	0	0	0.334384	-0.106787	-0.205221	0.035481	-0.112661	0	0	-0.28105	0.0583263	0.0965407	0.732771	-0.364675	0.412156	1.36781	1.5708	0	0	0.631274	-0.307114	0.00136733	1.35317	0.939987	0	0
4.67	2.50314	1.47766	-0.977909	0.774877	1.49517	0.923523	-0.321685	0.125635	-0.136849	0.0693809	0.112281	0	0	0.330025	-0.104359	-0.202311	0.00836236	-0.113746	0	0	-0.280627	0.0589809	0.100614	0.731522	-0.367054	0.407986	1.37439	1.5708	0	0	0.632038	-0.305932	0.000124122	1.35956	0.938277	0	0
4.68	2.47792	1.477	-0.956177	0.77479	1.50217	0.921622	-0.330841	0.126448	-0.133334	0.0677102	0.118892	0	0	0.330101	-0.103473	-0.209242	0	-0.110617	0	0	-0.279904	0.0595422	0.105493	0.730136	-0.370112	0.4044	1.38134	1.5708	0	0	0.632293	-0.304442	-0.00118269	1.36699	0.93772	0	0
4.69	2.45855	1.47589	-0.941144	0.774765	1.50925	0.919824	-0.340251	0.126623	-0.12939	0.0669624	0.125318	0	0	0.332015	-0.103601	-0.221609	0	-0.104508	0	0	-0.279903	0.0595786	0.111135	0.728432	-0.373274	0.400225	1.38873	1.5708	0	0	0.632261	-0.303064	-0.00228418	1.37478	0.936721	0	0
4.7	2.44374	1.47448	-0.931399	0.774752	1.51641	0.918131	-0.349452	0.126006	-0.125538	0.0676141	0.131888	0	0	0.334575	-0.10447	-0.234373	0	-0.0979092	0	0	-0.280365	0.0592906	0.117453	0.726494	-0.376424	0.394982	1.39599	1.5708	0	0	0.632202	-0.301415	-0.00375515	1.38231	0.935672	0	0
4.71	2.42966	1.47308	-0.922446	0.774616	1.52367	0.916478	-0.357517	0.124775	-0.12337	0.0704343	0.138983	0	0	0.337969	-0.105902	-0.245335	0	-0.0913528	0	0	-0.280756	0.0590976	0.123537	0.724566	-0.379599	0.390146	1.40301	1.5708	0	0	0.631722	-0.299681	-0.00534776	1.38956	0.934992	0	0
4.72	2.41294	1.47178	-0.911167	0.774465	1.53105	0.914871	-0.364466	0.123358	-0.121826	0.0748286	0.145951	0	0	0.341174	-0.108202	-0.252602	2.42675e-08	-0.0850573	0	0	-0.280559	0.0590487	0.129524	0.72228	-0.382256	0.385443	1.40929	1.5708	0	0	0.630487	-0.297993	-0.00708751	1.39669	0.934617	0	0
4.73	2.3952	1.47062	-0.898969	0.774266	1.53852	0.913299	-0.370122	0.121631	-0.121425	0.0812737	0.153232	0	0	0.345573	-0.111354	-0.259728	0.0126752	-0.0775053	0	0	-0.280078	0.0590294	0.135409	0.719981	-0.385206	0.381334	1.41588	1.5708	0	0	0.628777	-0.296263	-0.0090121	1.4045	0.934205	0	0
4.74	2.37481	1.46982	-0.88418	0.773995	1.54612	0.911733	-0.374263	0.119448	-0.121759	0.0896393	0.160715	0	0	0.351493	-0.115258	-0.266907	0.0322903	-0.0691866	0	0	-0.278882	0.0591432	0.141095	0.718025	-0.388665	0.378556	1.42227	1.5708	0	0	0.626571	-0.294545	-0.0110278	1.41255	0.933773	0	0
4.75	2.35243	1.46952	-0.867535	0.773678	1.55391	0.910175	-0.377194	0.116668	-0.122352	0.0994431	0.168273	0	0	0.357751	-0.119571	-0.272807	0.055443	-0.0615501	0	0	-0.276628	0.0592054	0.146536	0.715824	-0.392093	0.37654	1.42813	1.5708	0	0	0.623516	-0.292888	-0.0132045	1.42064	0.933352	0	0
4.76	2.41512	1.43022	-0.956698	0.775753	1.55922	0.913581	-0.415826	0.125199	-0.0893927	0.110219	0.158584	0	0	0.318605	-0.150851	-0.301292	0.0770776	-0.0531815	0	0	-0.324793	0.0699127	0.176586	0.732482	-0.399868	0.382134	1.43378	1.5708	0	0	0.631865	-0.289122	-0.0169068	1.42942	0.933645	0	0
4.77	2.34888	1.46784	-0.87585	0.772914	1.57019	0.907582	-0.388302	0.108176	-0.12169	0.116895	0.179716	0	0	0.363183	-0.126246	-0.286098	0.104315	-0.0463805	0	0	-0.274327	0.0566275	0.156147	0.710714	-0.397946	0.373402	1.4384	1.5708	0	0	0.615675	-0.290357	-0.0175112	1.43735	0.932854	0	0
4.78	2.33374	1.4704	-0.866584	0.772404	1.57864	0.906111	-0.386993	0.101778	-0.127019	0.132175	0.188173	0	0	0.368425	-0.127779	-0.293508	0.126755	-0.0409415	0	0	-0.268324	0.0542481	0.160117	0.705682	-0.400103	0.370523	1.44279	1.5708	0	0	0.609623	-0.289211	-0.0195897	1.44589	0.932448	0	0
4.79	2.34743	1.47164	-0.885927	0.771832	1.58719	0.905078	-0.38954	0.0940799	-0.130874	0.145854	0.194119	0	0	0.367137	-0.126308	-0.298313	0.140386	-0.0431769	0	0	-0.265467	0.0503394	0.163376	0.701309	-0.402032	0.368103	1.44664	1.5708	0	0	0.603802	-0.288335	-0.0220455	1.45449	0.932091	0	0
